<svg width="24" height="22" viewBox="0 0 24 22" fill="none" xmlns="http://www.w3.org/2000/svg">
<path d="M22.6791 1.39461C22.5016 1.35592 22.3149 1.37681 22.1527 1.45348L21.0001 1.98114L19.8376 1.44832C19.7334 1.4006 19.6186 1.37575 19.5022 1.37575C19.3857 1.37575 19.2709 1.4006 19.1668 1.44832L17.9897 1.98157L16.8282 1.44832C16.7237 1.40025 16.6085 1.37521 16.4916 1.37521C16.3748 1.37521 16.2595 1.40025 16.1551 1.44832L15.0001 1.97985L13.854 1.44961C13.7498 1.40121 13.6348 1.37577 13.518 1.37532C13.4012 1.37487 13.2859 1.39943 13.1813 1.44704L12.0001 1.982L10.8376 1.4479C10.7332 1.40019 10.6183 1.37536 10.5017 1.37536C10.3851 1.37536 10.2702 1.40019 10.1658 1.4479L9.00006 1.98114L7.83569 1.4479C7.68558 1.37892 7.51456 1.35812 7.35003 1.38881C7.18549 1.41951 7.03695 1.49993 6.92819 1.61719C6.81096 1.74527 6.74776 1.90764 6.75006 2.07481V12.3753L6.7524 12.3774H15.7501C16.1479 12.3774 16.5294 12.5223 16.8107 12.7802C17.092 13.038 17.2501 13.3878 17.2501 13.7524V18.219C17.2501 19.5481 18.8002 20.6253 20.2501 20.6253H20.8126C21.459 20.6253 22.079 20.3899 22.5361 19.9708C22.9933 19.5518 23.2501 18.9835 23.2501 18.3909V2.06278C23.2502 1.9089 23.194 1.75943 23.0905 1.6383C22.987 1.51716 22.8421 1.43135 22.6791 1.39461ZM19.5001 10.3128H13.5235C13.1185 10.3128 12.7688 10.0275 12.751 9.65622C12.7464 9.56343 12.7624 9.47077 12.798 9.38381C12.8336 9.29685 12.888 9.21741 12.958 9.15026C13.028 9.08312 13.1122 9.02968 13.2053 8.99316C13.2985 8.95664 13.3987 8.9378 13.5001 8.93778H19.4766C19.8816 8.93778 20.2313 9.22309 20.2491 9.59434C20.2537 9.68712 20.2377 9.77979 20.2021 9.86674C20.1665 9.9537 20.1121 10.0331 20.0421 10.1003C19.9721 10.1674 19.888 10.2209 19.7948 10.2574C19.7016 10.2939 19.6014 10.3128 19.5001 10.3128ZM19.5001 6.87528H10.5235C10.1185 6.87528 9.76881 6.58997 9.751 6.21872C9.74644 6.12593 9.76243 6.03327 9.79802 5.94631C9.83361 5.85935 9.88804 5.77991 9.95805 5.71276C10.028 5.64562 10.1122 5.59218 10.2053 5.55566C10.2985 5.51914 10.3987 5.5003 10.5001 5.50028H19.4766C19.8816 5.50028 20.2313 5.78559 20.2491 6.15684C20.2537 6.24962 20.2377 6.34229 20.2021 6.42924C20.1665 6.5162 20.1121 6.59565 20.0421 6.66279C19.9721 6.72993 19.888 6.78338 19.7948 6.8199C19.7016 6.85642 19.6014 6.87526 19.5001 6.87528Z" fill="#003399"/>
<path d="M15.75 18.2188V14.4375C15.75 14.2552 15.671 14.0803 15.5303 13.9514C15.3897 13.8224 15.1989 13.75 15 13.75H2.25C1.85215 13.7511 1.47098 13.8967 1.18988 14.1547C0.908777 14.4128 0.750618 14.7625 0.75 15.1271C0.75 17.2992 1.02094 18.2024 1.42781 18.8899C2.11828 20.0574 3.36844 20.625 5.25 20.625H16.7663C16.8032 20.625 16.8394 20.615 16.8702 20.5962C16.901 20.5775 16.9251 20.5508 16.9394 20.5195C16.9536 20.4882 16.9575 20.4537 16.9505 20.4205C16.9435 20.3872 16.9258 20.3565 16.8998 20.3324C16.4564 19.9246 15.75 19.3789 15.75 18.2188Z" fill="#003399"/>
</svg>
